<?xml version="1.0" standalone="no"?>
<!DOCTYPE svg PUBLIC "-//W3C//DTD SVG 20010904//EN"
 "http://www.w3.org/TR/2001/REC-SVG-20010904/DTD/svg10.dtd">
<svg version="1.0" xmlns="http://www.w3.org/2000/svg"
 width="695.000000pt" height="695.000000pt" viewBox="0 0 695.000000 695.000000"
 preserveAspectRatio="xMidYMid meet">
<metadata>
Created by potrace 1.11, written by Peter Selinger 2001-2013
</metadata>
<g transform="translate(0.000000,695.000000) scale(0.100000,-0.100000)"
fill="#000000" stroke="none">
<path d="M3279 6486 c-2 -2 -33 -6 -69 -10 -100 -9 -163 -16 -190 -21 -14 -3
-41 -8 -60 -11 -297 -49 -703 -196 -949 -345 -34 -22 -65 -39 -68 -39 -2 0
-52 -33 -111 -72 -482 -328 -847 -765 -1082 -1298 -40 -90 -134 -360 -143
-411 -3 -13 -10 -44 -17 -69 -14 -50 -14 -54 -35 -165 -19 -106 -22 -128 -30
-210 -4 -38 -9 -86 -11 -105 -5 -41 -5 -442 0 -485 2 -16 7 -64 11 -105 4 -41
8 -77 10 -80 1 -3 6 -32 10 -65 3 -32 8 -62 10 -65 2 -3 6 -21 9 -40 13 -84
66 -279 107 -396 158 -451 415 -849 760 -1179 157 -150 370 -314 514 -396 201
-114 279 -153 435 -216 209 -84 445 -149 655 -178 28 -4 59 -9 70 -11 144 -27
552 -26 760 1 249 33 584 124 775 211 290 133 474 244 700 422 122 96 352 328
458 460 71 89 214 294 248 357 6 11 30 56 53 100 24 44 48 86 53 93 6 6 7 12
3 12 -4 0 -1 10 7 23 49 74 154 362 199 542 32 132 65 314 74 415 4 36 8 79
11 95 6 49 5 405 -1 491 -6 69 -39 312 -48 354 -2 8 -9 42 -16 75 -58 278
-216 665 -361 890 -11 17 -23 37 -27 45 -9 19 -114 170 -157 224 -340 441
-832 804 -1331 982 -138 50 -281 93 -361 108 -10 2 -53 11 -94 19 -72 15 -93
18 -190 32 -25 3 -61 8 -80 11 -39 6 -495 15 -501 10z m-147 -1485 c8 -57 3
-61 -85 -62 -98 -1 -109 -2 -181 -29 -80 -30 -137 -90 -151 -160 -13 -66 -17
-220 -18 -670 0 -286 2 -522 5 -525 3 -3 21 9 39 27 28 27 173 161 290 269 14
13 75 69 135 124 184 169 537 526 604 610 104 132 134 222 94 283 -35 54 -80
71 -191 73 l-69 1 0 42 1 41 560 1 c612 0 576 4 567 -57 -4 -26 -9 -29 -41
-30 -139 -5 -283 -69 -459 -207 -115 -89 -149 -122 -421 -395 -113 -115 -311
-312 -438 -440 -128 -127 -233 -234 -233 -238 0 -5 1016 -1022 1184 -1184 266
-258 486 -386 733 -428 l78 -13 0 -40 0 -39 -730 0 -730 0 0 40 0 40 62 7
c146 16 205 87 174 208 -11 41 -61 94 -608 637 -328 326 -599 590 -602 588 -7
-8 -4 -1082 3 -1160 14 -136 41 -182 135 -229 69 -35 127 -48 214 -48 l77 1 0
-43 0 -42 -652 1 -653 0 0 40 0 40 93 2 c234 6 318 79 338 297 9 92 9 2218 0
2316 -3 41 -9 88 -12 105 -20 109 -153 184 -334 188 l-85 2 -1 35 c-1 19 0 38
2 41 1 3 295 5 653 5 l649 0 4 -25z"/>
</g>
</svg>
