<?xml version="1.0" standalone="no"?>
<!DOCTYPE svg PUBLIC "-//W3C//DTD SVG 20010904//EN"
 "http://www.w3.org/TR/2001/REC-SVG-20010904/DTD/svg10.dtd">
<svg version="1.0" xmlns="http://www.w3.org/2000/svg"
 width="695.000000pt" height="695.000000pt" viewBox="0 0 695.000000 695.000000"
 preserveAspectRatio="xMidYMid meet">
<metadata>
Created by potrace 1.11, written by Peter Selinger 2001-2013
</metadata>
<g transform="translate(0.000000,695.000000) scale(0.100000,-0.100000)"
fill="#000000" stroke="none">
<path d="M3207 6479 c-685 -71 -1295 -352 -1781 -819 -507 -488 -821 -1120
-901 -1815 -20 -171 -20 -539 0 -710 80 -692 392 -1323 896 -1811 466 -450
1034 -721 1709 -816 145 -20 584 -17 734 5 566 84 1034 285 1467 628 124 98
368 340 463 459 162 203 338 498 432 725 110 267 185 566 213 849 14 141 14
491 0 632 -100 1019 -726 1919 -1654 2381 -268 134 -581 229 -915 279 -125 18
-535 27 -663 13z m-77 -1493 l0 -44 -107 -4 c-95 -3 -116 -7 -174 -35 -69 -32
-105 -69 -130 -133 -11 -28 -14 -156 -17 -630 l-3 -594 23 20 c407 364 972
914 1062 1034 156 209 119 340 -97 340 l-77 0 0 45 0 45 560 0 560 0 0 -45 0
-45 -43 0 c-110 0 -279 -73 -432 -187 -96 -71 -1118 -1079 -1113 -1098 2 -5
289 -294 638 -641 640 -635 773 -756 923 -842 96 -55 248 -109 351 -125 l81
-13 0 -39 0 -40 -727 -3 -728 -2 0 45 0 45 43 0 c65 0 132 27 167 66 35 40 40
100 14 162 -17 41 -259 288 -847 864 l-358 351 3 -619 c3 -463 7 -628 16 -657
17 -50 68 -99 139 -133 50 -24 73 -29 166 -32 l107 -4 0 -44 0 -44 -652 2
-653 3 0 40 0 40 115 6 c206 10 285 70 310 236 16 105 9 2446 -8 2495 -19 57
-57 94 -129 130 -59 29 -78 33 -177 38 l-111 5 -3 28 c-7 61 -51 57 658 57
l650 0 0 -44z"/>
</g>
</svg>
